<?xml version="1.0" encoding="UTF-8" standalone="no"?>
<!-- Created with Inkscape (http://www.inkscape.org/) -->

<svg
   version="1.1"
   id="svg2"
   width="700"
   height="561.39099"
   viewBox="0 0 700.00001 561.39098"
   sodipodi:docname="logo.svg"
   inkscape:version="1.2.2 (1:1.2.2+202305151914+b0a8486541)"
   xmlns:inkscape="http://www.inkscape.org/namespaces/inkscape"
   xmlns:sodipodi="http://sodipodi.sourceforge.net/DTD/sodipodi-0.dtd"
   xmlns="http://www.w3.org/2000/svg"
   xmlns:svg="http://www.w3.org/2000/svg">
  <defs
     id="defs6" />
  <sodipodi:namedview
     id="namedview4"
     pagecolor="#ffffff"
     bordercolor="#000000"
     borderopacity="0.25"
     inkscape:showpageshadow="2"
     inkscape:pageopacity="0.0"
     inkscape:pagecheckerboard="0"
     inkscape:deskcolor="#d1d1d1"
     showgrid="false"
     inkscape:zoom="0.86337734"
     inkscape:cx="-57.332985"
     inkscape:cy="253.0759"
     inkscape:window-width="1846"
     inkscape:window-height="1016"
     inkscape:window-x="0"
     inkscape:window-y="0"
     inkscape:window-maximized="1"
     inkscape:current-layer="g10">
    <inkscape:page
       x="0"
       y="0"
       id="page8"
       width="700"
       height="561.39099"
       inkscape:export-filename="../logoLiga.png"
       inkscape:export-xdpi="96"
       inkscape:export-ydpi="96" />
  </sodipodi:namedview>
  <g
     id="g10"
     inkscape:groupmode="layer"
     inkscape:label="Page 1"
     transform="matrix(1.3333333,0,0,-1.3333333,0,2666.6667)">
    <path
       d="m 191.50432,1682.6574 10.30154,0.7775 47.23158,-18.0763 7.67245,-7.6725 c -23.23217,1.197 -46.16767,9.5241 -65.20557,24.9713 z m -35.71269,124.4164 4.41933,-8.767 -1.43219,-46.1268 -5.93336,-8.276 c -4.9922,20.8281 -3.9999,42.7918 2.94622,63.1698 z m 110.06382,76.1823 -9.27855,-7.7134 -42.03478,-13.1761 -14.67995,1.9846 c 19.85629,13.2682 43.00663,19.5596 65.99328,18.9049 z m 76.6324,-32.9506 c 14.13777,-14.1378 23.70275,-31.1194 28.76657,-49.1037 -2.89507,1.5448 -6.47555,3.3964 -10.91534,5.6674 l -26.33184,42.0246 -1.05368,9.9025 c 3.29404,-2.629 6.48578,-5.4423 9.53429,-8.4908 z m 0,-159.7506 c -5.12519,-5.1252 -10.62889,-9.6366 -16.41903,-13.5649 l 1.96414,10.3425 28.44944,37.2062 11.33476,4.8286 c -5.49347,-14.148 -13.92293,-27.4162 -25.32931,-38.8124 z m -140.74337,35.0989 23.63114,13.4831 43.31352,-15.1199 8.21463,-26.9558 -24.57229,-21.9126 -46.75078,17.8922 z m -1.95392,87.8444 21.54423,-19.7335 -0.9923,-45.6255 -24.03011,-13.6979 -27.23207,16.8794 1.47311,47.651 z m 83.5683,29.2985 -10.25039,-26.8433 -45.6971,-13.7593 -20.96112,19.2016 7.7952,30.0658 46.03469,14.4242 z m 52.76598,-70.3717 -27.36506,1.422 -26.23978,37.8201 10.57775,27.7128 32.0606,4.1943 26.39322,-42.1268 z m -49.47194,-71.9368 -7.48831,24.562 29.24737,38.485 27.30368,-1.4219 13.45236,-30.1579 -28.3676,-37.0937 z m 34.82268,-38.4032 0.98207,0.5831 c 9.80027,5.4423 19.02767,12.2759 27.33437,20.5826 14.88455,14.8948 25.1554,32.6744 30.82278,51.5589 l 0.16368,0.072 0.6138,2.4961 c 0.0511,0.1739 0.21483,0.8695 0.47058,1.9846 2.23012,8.6443 3.52932,17.4727 3.86691,26.3421 0.57287,8.7773 0.36828,18.2093 -1.71863,26.1068 v 0.01 c -0.0512,0.1944 -0.0921,0.3785 -0.15345,0.5626 -4.29657,23.8972 -15.63133,46.7815 -34.06567,65.2158 -5.7083,5.7083 -11.84625,10.7108 -18.30134,15.0585 l -0.0102,0.031 -0.98207,0.6649 c -0.0205,0.01 -0.0307,0.021 -0.0512,0.031 l -0.98208,0.6547 c -0.18414,0.1126 -1.25828,0.8287 -3.14058,1.913 -13.58535,8.2044 -28.42898,13.5445 -43.65112,16.0303 -0.95138,0.1842 -1.91299,0.3581 -2.88484,0.5218 l -2.33242,0.3989 -0.18414,-0.1534 c -32.73578,3.8874 -66.72983,-5.2889 -93.47087,-27.5492 l -0.19437,-0.1535 c -9.09441,-6.8131 -16.60317,-16.0405 -22.16826,-24.2244 -3.27357,-4.716 -6.1891,-9.5957 -8.73636,-14.6186 -1.30943,-2.5166 -2.06644,-4.1431 -2.17897,-4.3989 l -1.023,-2.2506 0.0409,-0.092 c -11.81556,-27.3446 -13.27844,-58.106 -4.38864,-86.2895 l -0.23528,-0.3376 1.18667,-2.6905 c 0.0205,-0.041 0.0512,-0.1227 0.0921,-0.225 4.81829,-13.9025 12.2043,-27.0889 22.12734,-38.8635 1.73908,-2.2506 3.50886,-4.317 5.28887,-6.0868 0.60357,-0.6138 1.21736,-1.1765 1.83116,-1.7084 0,0 0,0 0,-0.01 25.16563,-25.1656 58.59704,-37.1244 91.63971,-35.9377 l 0.15345,-0.1534 2.37334,0.1943 c 1.10484,0.092 2.18921,0.1944 3.27358,0.2967 12.93063,1.0741 25.71804,4.1738 37.85074,9.3092 6.60854,2.6905 10.39361,4.9104 10.74143,5.1252"
       style="fill:#5e081a;fill-opacity:1;fill-rule:nonzero;stroke:none;stroke-width:0.102299"
       id="path358" />
    <path
       d="m 129.75646,1810.1326 -11.81557,-7.2633 c -2.95645,-1.8209 -5.62646,-4.7262 -7.75429,-8.2146 0.27621,3.959 -0.26597,7.6724 -1.68793,10.5982 l -5.70831,11.703 c -4.961511,-8.143 -6.281172,-18.5264 -3.109894,-25.1451 l 5.636694,-11.7747 c 0,-0.082 -0.0205,-0.1637 -0.0205,-0.2455 l 0.11253,0.072 0.0512,-0.1228 c 0.0511,0.082 0.0818,0.1535 0.13299,0.2353 l 11.81556,7.3758 c 6.629,4.1329 11.70304,13.5547 12.34753,22.7821"
       style="fill:#5e081a;fill-opacity:1;fill-rule:nonzero;stroke:none;stroke-width:0.102299"
       id="path362" />
    <path
       d="m 126.17598,1787.6881 -13.61603,-8.3783 c -3.4168,-2.0971 -6.26072,-5.2889 -8.31694,-9.0637 -0.3785,4.1124 -1.74931,7.8975 -4.11243,10.8028 l -9.421763,11.6416 c -4.808067,-8.7772 -4.542089,-19.6005 0.716095,-26.1784 l 9.350158,-11.6928 c 0.0102,-0.092 0.0102,-0.1739 0.0102,-0.2659 l 0.13299,0.082 0.0921,-0.1125 c 0.0409,0.082 0.0818,0.1636 0.12276,0.2455 l 13.61603,8.5215 c 7.63153,4.7672 12.31684,14.8539 11.42683,24.3984"
       style="fill:#5e081a;fill-opacity:1;fill-rule:nonzero;stroke:none;stroke-width:0.102299"
       id="path364" />
    <path
       d="m 122.85126,1765.1618 -13.44213,-10.9665 c -3.37588,-2.7518 -5.9129,-6.496 -7.44739,-10.6596 -1.23782,4.0408 -3.519096,7.5804 -6.710834,10.0458 l -12.848792,9.9333 c -3.621395,-9.7594 -1.166212,-20.5929 6.025429,-26.1886 l 12.746497,-9.9231 c 0.0205,-0.082 0.0409,-0.1739 0.0614,-0.266 l 0.13298,0.1126 0.12276,-0.092 c 0.0307,0.082 0.0512,0.1739 0.0818,0.266 l 13.4319,11.1506 c 7.50877,6.23 10.70051,17.2067 7.84636,26.5876"
       style="fill:#5e081a;fill-opacity:1;fill-rule:nonzero;stroke:none;stroke-width:0.102299"
       id="path366" />
    <path
       d="m 121.23493,1740.7225 -10.85396,-14.9664 c -2.72116,-3.7646 -4.31703,-8.2965 -4.75691,-12.9613 -2.39381,3.7339 -5.728766,6.6494 -9.738898,8.2248 l -16.1326,6.3324 c -1.063912,-10.9665 4.521629,-21.2578 13.564887,-24.8178 l 15.948461,-6.271 c 0.0511,-0.082 0.0921,-0.1637 0.14322,-0.2455 l 0.1023,0.1432 0.15345,-0.051 c 0.0102,0.092 0.0102,0.1943 0.0102,0.2864 l 10.78234,15.2017 c 6.0152,8.4704 6.29141,20.4701 0.77748,29.1246"
       style="fill:#5e081a;fill-opacity:1;fill-rule:nonzero;stroke:none;stroke-width:0.102299"
       id="path368" />
    <path
       d="m 129.84853,1712.4572 -13.89225,-15.3756 c -3.49863,-3.8669 -5.75945,-8.5727 -6.71083,-13.4523 -2.40403,3.9794 -5.96405,7.12 -10.424298,8.8693 l -17.963757,7.0587 c -2.281275,-11.4678 3.161048,-22.3934 13.237529,-26.3626 l 17.759156,-6.9972 c 0.0512,-0.082 0.0921,-0.174 0.14322,-0.2558 l 0.13299,0.1535 0.17391,-0.072 c 0.0102,0.1023 0.0205,0.2046 0.0409,0.3069 l 13.85132,15.6518 c 7.7236,8.7262 9.17625,21.2681 3.65209,30.475"
       style="fill:#1a394c;fill-opacity:1;fill-rule:nonzero;stroke:none;stroke-width:0.102299"
       id="path370" />
    <path
       d="m 138.2473,1686.8517 -11.99971,-17.6057 c -3.02806,-4.4296 -4.6853,-9.5241 -4.9922,-14.5981 -2.97691,3.652 -7.01773,6.2914 -11.79511,7.3962 l -19.252729,4.45 c -0.757015,-11.969 6.281177,-22.2092 17.063519,-24.6848 l 18.98675,-4.3682 c 0.0512,-0.082 0.1023,-0.1637 0.16368,-0.2455 l 0.12276,0.1841 0.18414,-0.041 c 0,0.1023 0,0.2046 0,0.3171 l 11.91787,17.8922 c 6.62899,9.9435 6.41417,22.823 -0.39897,31.3036"
       style="fill:#1a394c;fill-opacity:1;fill-rule:nonzero;stroke:none;stroke-width:0.102299"
       id="path372" />
    <path
       d="m 149.49,1662.5863 -9.20694,-19.8358 c -2.31197,-5.0025 -3.15082,-10.4039 -2.62909,-15.5393 -3.60094,3.0997 -8.12257,4.982 -13.125,5.1866 l -20.2655,0.8388 c 1.21737,-12.1531 10.05603,-21.0839 21.39079,-21.5135 l 19.86652,-0.757 c 0.0716,-0.061 0.13299,-0.1433 0.21483,-0.2046 l 0.0818,0.1943 h 0.19437 c -0.0102,0.1023 -0.0307,0.2046 -0.0512,0.3172 l 9.06372,20.1018 c 5.03312,11.1711 2.71093,23.9892 -5.53439,31.2115"
       style="fill:#1a394c;fill-opacity:1;fill-rule:nonzero;stroke:none;stroke-width:0.102299"
       id="path374" />
    <path
       d="m 114.45248,1806.3475 c -0.22505,2.2199 -0.2762,6.2402 1.80047,10.5675 4.6137,9.6161 15.55973,11.9997 16.72594,12.235 -0.52173,-2.4143 -1.47311,-5.4321 -3.29404,-8.6647 -4.64439,-8.2658 -11.91787,-12.4703 -15.23237,-14.1378"
       style="fill:#5e081a;fill-opacity:1;fill-rule:nonzero;stroke:none;stroke-width:0.102299"
       id="path376" />
    <path
       d="m 393.79095,1810.2553 11.93833,-7.0689 c 2.98714,-1.7697 5.7083,-4.6239 7.89751,-8.0816 -0.34782,3.959 0.12276,7.6827 1.5038,10.6289 l 5.49347,11.8053 c 5.11496,-8.0509 6.60853,-18.4138 3.54979,-25.0838 l -5.4321,-11.8769 c 0.0102,-0.082 0.0205,-0.1637 0.0307,-0.2455 l -0.11253,0.072 -0.0512,-0.1228 c -0.0512,0.082 -0.0921,0.1535 -0.13299,0.2251 l -11.93832,7.1712 c -6.70061,4.0203 -11.94856,13.3603 -12.7465,22.5774"
       style="fill:#5e081a;fill-opacity:1;fill-rule:nonzero;stroke:none;stroke-width:0.102299"
       id="path380" />
    <path
       d="m 397.76017,1787.8722 13.75925,-8.143 c 3.44749,-2.046 6.35279,-5.1866 8.47038,-8.9205 0.3069,4.1124 1.61633,7.9282 3.91807,10.8744 l 9.22739,11.8054 c 4.96152,-8.6955 4.87968,-19.5187 -0.26597,-26.1887 l -9.14556,-11.8564 c -0.0102,-0.082 0,-0.1739 -0.0102,-0.266 l -0.13299,0.082 -0.0921,-0.1125 c -0.0409,0.082 -0.0716,0.1637 -0.12276,0.2455 l -13.75925,8.276 c -7.71337,4.6444 -12.57259,14.6493 -11.84626,24.204"
       style="fill:#5e081a;fill-opacity:1;fill-rule:nonzero;stroke:none;stroke-width:0.102299"
       id="path382" />
    <path
       d="m 401.47363,1765.4073 13.62627,-10.7312 c 3.42702,-2.6905 6.02543,-6.3937 7.63153,-10.5368 1.16621,4.0715 3.3861,7.6417 6.54715,10.1685 l 12.66465,10.1481 c 3.78508,-9.6877 1.51403,-20.5621 -5.57531,-26.2909 l -12.56235,-10.1379 c -0.0307,-0.092 -0.0409,-0.1739 -0.0614,-0.2659 l -0.13299,0.1125 -0.12276,-0.1023 c -0.0307,0.092 -0.0614,0.1841 -0.0921,0.266 l -13.61604,10.9153 c -7.62129,6.0971 -11.0074,17.0226 -8.3067,26.4546"
       style="fill:#5e081a;fill-opacity:1;fill-rule:nonzero;stroke:none;stroke-width:0.102299"
       id="path384" />
    <path
       d="m 403.51962,1740.9987 11.09947,-14.772 c 2.79277,-3.7237 4.46025,-8.2249 4.98198,-12.8795 2.33242,3.7748 5.61623,6.7415 9.59567,8.3885 l 16.0303,6.6188 c 1.24805,-10.9562 -4.16358,-21.3396 -13.14546,-25.0531 l -15.83593,-6.5471 c -0.0409,-0.082 -0.0818,-0.174 -0.13299,-0.2558 l -0.1023,0.1535 -0.15345,-0.061 c -0.0102,0.092 -0.0102,0.1943 -0.0205,0.2864 l -11.03809,15.0073 c -6.15842,8.3681 -6.64946,20.3576 -1.27874,29.1144"
       style="fill:#5e081a;fill-opacity:1;fill-rule:nonzero;stroke:none;stroke-width:0.102299"
       id="path386" />
    <path
       d="m 395.38682,1712.58 14.15823,-15.1301 c 3.57024,-3.8055 5.90267,-8.4704 6.94612,-13.3296 2.33242,4.0101 5.84129,7.2223 10.27085,9.0432 l 17.83077,7.3758 c 2.47564,-11.437 -2.77232,-22.4547 -12.76696,-26.5876 l -17.64663,-7.3041 c -0.0409,-0.092 -0.0818,-0.1739 -0.13299,-0.266 l -0.13298,0.1534 -0.17391,-0.072 c -0.0205,0.1023 -0.0307,0.2046 -0.0409,0.3069 l -14.12754,15.4165 c -7.87704,8.5829 -9.54452,21.1044 -4.18404,30.3932"
       style="fill:#1a394c;fill-opacity:1;fill-rule:nonzero;stroke:none;stroke-width:0.102299"
       id="path388" />
    <path
       d="m 387.43817,1686.8312 12.3066,-17.3806 c 3.09967,-4.3887 4.84899,-9.4423 5.23773,-14.5163 2.91553,3.7032 6.91543,6.4142 11.66212,7.6008 l 19.18112,4.7774 c 0.96161,-11.9485 -5.89244,-22.3115 -16.63387,-24.9712 l -18.90491,-4.6956 c -0.0614,-0.082 -0.11253,-0.1637 -0.17391,-0.2455 l -0.11253,0.1739 -0.18414,-0.051 c -0.0102,0.1125 0,0.2148 -0.0102,0.3273 l -12.22476,17.6773 c -6.80291,9.831 -6.81314,22.7207 -0.14322,31.3036"
       style="fill:#1a394c;fill-opacity:1;fill-rule:nonzero;stroke:none;stroke-width:0.102299"
       id="path390" />
    <path
       d="m 376.6149,1662.3715 9.54453,-19.662 c 2.41426,-4.9615 3.34518,-10.3527 2.9053,-15.4881 3.54978,3.1508 8.03049,5.115 13.03293,5.4117 l 20.24503,1.1866 c -1.00254,-12.1736 -9.68775,-21.2475 -21.01228,-21.8818 l -19.84606,-1.0946 c -0.0716,-0.072 -0.13299,-0.1432 -0.21483,-0.2148 l -0.0921,0.1943 -0.19437,-0.01 c 0.0205,0.1125 0.0409,0.2148 0.0512,0.3171 l -9.41153,19.9484 c -5.2275,11.079 -3.13036,23.9483 4.9922,31.2934"
       style="fill:#1a394c;fill-opacity:1;fill-rule:nonzero;stroke:none;stroke-width:0.102299"
       id="path392" />
    <path
       d="m 409.15631,1806.726 c 0.18414,2.2199 0.16368,6.2403 -1.98461,10.5471 -4.77738,9.524 -15.76432,11.7235 -16.93053,11.9383 0.56264,-2.404 1.56518,-5.4116 3.43725,-8.6034 4.78761,-8.1839 12.1327,-12.2759 15.47789,-13.882"
       style="fill:#5e081a;fill-opacity:1;fill-rule:nonzero;stroke:none;stroke-width:0.102299"
       id="path394" />
    <path
       d="m 262.50003,2000.0001 c -73.49182,0 -146.98363,-13.4831 -216.700605,-40.4594 l -6.209568,-2.3938 C 16.101938,1950.1189 2.798e-5,1928.5031 2.798e-5,1903.9819 v -211.4935 c 0,-24.5519 16.13260002,-46.1882 39.67166902,-53.1854 v 0 c 69.461223,-26.7308 142.584763,-40.0707 215.687843,-40.0707 78.36126,0 156.68161,15.3347 230.36779,45.9426 l 1.04346,0.4399 c 22.80251,7.4577 38.22925,28.7359 38.22925,52.7251 v 205.642 c 0,24.5212 -16.10191,46.137 -39.60006,53.165 l -6.20957,2.3938 c -69.71697,26.9763 -143.19856,40.4594 -216.69038,40.4594 z m 0,-11.6519 c 72.94963,0 144.44661,-13.3501 212.48588,-39.6717 l 6.20957,-2.404 0.42965,-0.1637 0.43989,-0.133 c 18.41387,-5.5037 31.2729,-22.7718 31.2729,-41.9939 v -205.642 c 0,-18.997 -12.1327,-35.7434 -30.18853,-41.6563 l -0.42966,-0.133 -0.41942,-0.1739 -1.04346,-0.4399 c -71.96755,-29.8918 -147.97593,-45.0424 -225.89731,-45.0424 -72.59158,0 -143.75098,13.2171 -211.503802,39.283 l -0.429657,0.1637 -0.429657,0.1329 c -18.454794,5.4833 -31.344506,22.7616 -31.344506,42.0144 v 211.4935 c 0,19.2221 12.859022,36.4902 31.283126,41.9939 l 0.439887,0.133 0.419427,0.1637 6.209568,2.404 c 68.049494,26.3216 139.536244,39.6717 212.496104,39.6717 v 0"
       style="fill:#5e081a;fill-opacity:1;fill-rule:nonzero;stroke:none;stroke-width:0.102299"
       id="path396" />
    <path
       d="m 262.50003,1969.0136 c -70.56606,0 -139.71015,-12.9102 -205.519292,-38.3725 l -7.35532,-2.8336 -1.155982,-0.3479 c -10.291309,-3.0792 -17.48295,-12.726 -17.48295,-23.4777 v -211.4935 c 0,-10.7619 7.191641,-20.419 17.48295,-23.4777 l 1.207132,-0.3581 1.115062,-0.4296 c 65.53293,-25.2168 134.34967,-38.0042 204.55768,-38.0042 75.38435,0 148.8864,14.6595 218.48062,43.5693 l 2.15851,0.89 1.14575,0.3785 c 10.09694,3.3042 16.87939,12.6646 16.87939,23.2833 v 205.642 c 0,10.7517 -7.19164,20.3985 -17.48295,23.4777 l -1.16621,0.3479 -7.35532,2.8439 c -65.80914,25.452 -134.95324,38.3622 -205.50907,38.3622 z m 0,-3.8874 c 70.07502,0 138.74854,-12.8181 204.10757,-38.1065 l 7.49853,-2.895 1.30943,-0.3888 c 8.66476,-2.5881 14.71064,-10.7107 14.71064,-19.754 v -205.642 c 0,-8.9307 -5.7083,-16.8078 -14.19914,-19.5903 l -1.28897,-0.4195 -2.2915,-0.9513 c -69.12364,-28.7154 -142.13465,-43.2726 -216.99728,-43.2726 -69.7272,0 -138.07336,12.6953 -203.156179,37.7382 l -1.268511,0.491 -1.340121,0.399 c -8.654521,2.5779 -14.71064,10.7005 -14.71064,19.754 v 211.4935 c 0,9.0433 6.045889,17.1659 14.71064,19.754 l 1.299201,0.3888 7.498538,2.895 c 65.359022,25.2884 134.032542,38.1065 204.117792,38.1065 v 0"
       style="fill:#8d97b9;fill-opacity:1;fill-rule:nonzero;stroke:none;stroke-width:0.102299"
       id="path398" />
    <path
       d="m 262.50003,1960.2977 c -69.49191,0 -137.5721,-12.7158 -202.378703,-37.7894 l -7.672448,-2.9564 -1.49357,-0.4501 c -6.618764,-1.9744 -11.252923,-8.1942 -11.252923,-15.1199 v -211.4935 c 0,-6.9359 4.623929,-13.1455 11.242693,-15.1199 l 1.54472,-0.4501 1.43219,-0.5626 c 64.530401,-24.8281 132.293451,-37.4211 201.427321,-37.4211 74.21814,0 146.60513,14.4344 215.13543,42.9043 l 2.47564,1.023 1.46288,0.4808 c 6.49601,2.1278 10.87442,8.1533 10.87442,14.9971 v 205.642 c 0,6.9257 -4.63416,13.1353 -11.25293,15.1199 l -1.5038,0.4501 -7.67244,2.9667 c -64.79638,25.0735 -132.88679,37.7791 -202.36848,37.7791 z m 0,-3.8874 c 69.00088,0 136.61049,-12.6237 200.96698,-37.5131 l 7.81566,-3.0281 1.64702,-0.491 c 4.99221,-1.4936 8.48061,-6.1789 8.48061,-11.3962 v -205.642 c 0,-5.1559 -3.29403,-9.698 -8.2044,-11.3041 l -1.6061,-0.5319 -2.60863,-1.0844 c -68.0495,-28.2653 -139.92498,-42.5974 -213.64186,-42.5974 -68.65306,0 -135.94554,12.5009 -200.025821,37.1653 l -1.585639,0.6138 -1.687938,0.491 c -4.981976,1.4834 -8.460152,6.1687 -8.460152,11.3962 v 211.4935 c 0,5.2173 3.488406,9.9026 8.490842,11.3962 l 1.636788,0.491 7.805437,3.0179 c 64.356493,24.8996 131.976323,37.5233 200.977203,37.5233 v 0"
       style="fill:#8d97b9;fill-opacity:1;fill-rule:nonzero;stroke:none;stroke-width:0.102299"
       id="path400" />
    <path
       d="m 469.50267,1710.9739 v 0 H 55.487168 v 0 c 0,-15.437 -12.521434,-27.9584 -27.958398,-27.9584 v -27.9584 -13.9741 -27.9584 c 15.436964,0 27.958398,-12.5215 27.958398,-27.9584 v 0 H 195.27916 469.50267 v 0 c 0,15.4369 12.52143,27.9584 27.95839,27.9584 v 27.9584 13.9741 27.9584 c -15.43696,0 -27.95839,12.5214 -27.95839,27.9584"
       style="fill:#8d97b9;fill-opacity:1;fill-rule:nonzero;stroke:none;stroke-width:0.102299"
       id="path404" />
    <path
       d="m 262.71486,1903.5421 -5.2991,10.7414 -11.84626,1.7186 8.57268,8.3579 -2.02553,11.8053 10.59821,-5.5753 10.59821,5.5753 -2.02553,-11.8053 8.58291,-8.3579 -11.85649,-1.7186 -5.2991,-10.7414"
       style="fill:#5e081a;fill-opacity:1;fill-rule:nonzero;stroke:none;stroke-width:0.102299"
       id="path406" />
    <path
       d="m 231.51357,1901.5165 -3.1815,6.4551 -7.12004,1.0332 5.15589,5.0127 -1.21736,7.0893 6.36301,-3.3451 6.36302,3.3451 -1.21736,-7.0893 5.15588,-5.0127 -7.12003,-1.0332 -3.18151,-6.4551"
       style="fill:#5e081a;fill-opacity:1;fill-rule:nonzero;stroke:none;stroke-width:0.102299"
       id="path408" />
    <path
       d="m 293.92638,1901.5165 -3.18151,6.4551 -7.12003,1.0332 5.14565,5.0127 -1.20713,7.0893 6.36302,-3.3451 6.36301,3.3451 -1.21736,-7.0893 5.14566,-5.0127 -7.10981,-1.0332 -3.1815,-6.4551"
       style="fill:#5e081a;fill-opacity:1;fill-rule:nonzero;stroke:none;stroke-width:0.102299"
       id="path410" />
    <text
       xml:space="preserve"
       style="font-size:95px;font-family:Gurajada;-inkscape-font-specification:Gurajada;text-align:center;text-anchor:middle;fill:#5e081a;fill-opacity:1;fill-rule:evenodd;stroke-width:0.75"
       x="260.33792"
       y="-1623.5701"
       id="text3247"
       transform="scale(1,-1)"><tspan
         sodipodi:role="line"
         id="tspan3245"
         style="font-style:normal;font-variant:normal;font-weight:normal;font-stretch:normal;font-size:95px;font-family:Keraleeyam;-inkscape-font-specification:Keraleeyam;fill:#5e081a;stroke-width:0.75;fill-opacity:1"
         x="260.33792"
         y="-1623.5701">Liga Regional</tspan></text>
  </g>
</svg>
